<svg xmlns="http://www.w3.org/2000/svg" viewBox="0 0 512 512" style="enable-background:new 0 0 512 512" xml:space="preserve"><path style="fill:#ee8700" d="M462.111 409.247c-.247-.554-24.418-56.953-6.728-188.655a197.703 197.703 0 0 0 1.673-20.549 7.457 7.457 0 0 0-5.21-7.325l-26.124-8.244 24.865-14.718a7.456 7.456 0 0 0 3.53-7.794c-6.699-35.63-25.019-68.825-52.978-95.996-24.428-23.741-55.34-42.436-89.397-54.066a7.457 7.457 0 0 0-8.135 2.28L287.17 33.883l-3.591-24.614a7.456 7.456 0 0 0-6.076-6.265C266.262 1.01 255.339 0 245.033 0c-21.042 0-44.585 1.913-69.975 5.688a7.456 7.456 0 0 0-6.167 5.691l-5.82 25.104-15.222-21.672a7.451 7.451 0 0 0-7.568-3.025C92.01 21.47 54.71 33.85 54.339 33.973a7.456 7.456 0 0 0-4.287 10.446l47.539 93.697a7.463 7.463 0 0 0 5.703 4.011 7.476 7.476 0 0 0 6.538-2.454c.096-.108 9.819-10.9 30.019-20.721 18.664-9.074 50.38-19.15 95.464-15.669 34.196 2.645 81.599 14.149 113.23 53.936 28.278 35.569 37.725 85.921 28.078 149.658-.01.062-.018.125-.026.188-.315 2.511-7.377 61.919 21.736 97.572a7.467 7.467 0 0 0 4.024 2.533l51.197 12.375a7.39 7.39 0 0 0 1.74.208 7.471 7.471 0 0 0 6.817-10.506z"/><path style="fill:#ba6500" d="M462.111 409.247c-.247-.554-24.418-56.953-6.728-188.655a197.703 197.703 0 0 0 1.673-20.549 7.457 7.457 0 0 0-5.21-7.325l-26.124-8.244 24.865-14.718a7.456 7.456 0 0 0 3.53-7.794c-6.699-35.63-25.019-68.825-52.978-95.996-24.428-23.741-55.34-42.436-89.397-54.066a7.457 7.457 0 0 0-8.135 2.28l-6.934 8.311c23.732 11.21 45.286 25.965 63.303 43.476 27.959 27.171 46.277 60.366 52.977 95.996a7.456 7.456 0 0 1-3.53 7.794l-24.864 14.718 26.124 8.244a7.455 7.455 0 0 1 5.209 7.325 197.45 197.45 0 0 1-1.672 20.549c-17.69 131.702 6.481 188.1 6.728 188.655.366.824.556 1.693.611 2.565l31.995 7.734a7.39 7.39 0 0 0 1.74.208 7.471 7.471 0 0 0 6.817-10.508z"/><path style="fill:#874600" d="M414.104 291.936a7.456 7.456 0 1 0-2.551 14.692l37.37 6.486c-.024-4.84.019-9.877.137-15.112l-34.956-6.066zM207.037 1.828 197.005 47.08a7.456 7.456 0 1 0 14.559 3.228L222.567.676a472.32 472.32 0 0 0-15.53 1.152zM404.11 147.189l37.874-23.637a177.367 177.367 0 0 0-6.732-13.376l-39.038 24.363a7.457 7.457 0 1 0 7.896 12.65zM360.219 147.94c-27.682-34.821-70.476-55.403-123.752-59.523-34.244-2.649-65.454 1.571-92.776 12.542a7.456 7.456 0 0 0-4.338 9.144l19.064 61.004a7.464 7.464 0 0 0 4 4.55c1.916.88 4.118.91 6.057.079 20.472-8.785 37.761-8.56 37.911-8.545a8.2 8.2 0 0 0 1.351-.089c.529-.084 53.397-7.973 88.283 21.864 20.907 17.882 31.507 45.952 31.507 83.434 0 21.462 1.4 42.648 4.162 62.969a7.453 7.453 0 0 0 9.263 6.212l44.058-11.444a7.455 7.455 0 0 0 5.581-7.109c.115-7.942.717-13.337.798-14.033 10.262-67.947-.224-122.132-31.169-161.055z"/><path style="fill:#cc7400" d="M367.379 252.816c-6.518-55.636-29.074-95.66-65.23-115.748C262.572 115.081 224.282 115.65 199.13 120c-27.217 4.706-45.052 14.574-45.798 14.991a7.458 7.458 0 0 0-3.474 8.73l8.558 27.384a7.464 7.464 0 0 0 4 4.55 7.46 7.46 0 0 0 6.057.079c20.468-8.785 37.762-8.548 37.929-8.545.441.007.894-.021 1.332-.089.529-.084 53.397-7.973 88.282 21.864 20.907 17.882 31.507 45.952 31.507 83.434 0 21.462 1.4 42.648 4.162 62.969a7.453 7.453 0 0 0 9.262 6.212l20.032-5.203a7.457 7.457 0 0 0 5.487-6.028c.238-1.462 5.738-36.35.913-77.532z"/><path style="fill:#ffca10" d="M394.571 469.218c-.521-.663-52.134-67.745-52.134-196.817 0-42.092-12.387-74.002-36.816-94.844-38.4-32.759-92.684-26.264-99.577-25.281-4.656.006-30.285.804-57.232 16.744-17.132 10.133-31.252 24.291-41.968 42.079-13.191 21.898-21.177 49.335-23.733 81.548-3.625 45.679-2.337 99.622.81 129.3a7.458 7.458 0 0 0 10.574 5.968l19.373-9.06a7.458 7.458 0 0 0 4.153-5.292l.573-2.891c4.442-22.481 16.244-82.198 47.883-88.79 13.081-2.727 25.366 1.137 36.515 11.477 3.779 3.505 6.82 7.218 9.074 10.337l-58.543 19.619a7.457 7.457 0 0 0-4.791 4.988l-38.997 134.171a7.451 7.451 0 0 0 3.122 8.336 7.476 7.476 0 0 0 8.895-.597c.192-.164 19.722-16.536 61.923-28.248 70.831-19.658 149.82-11.294 203.613-.817a7.455 7.455 0 0 0 7.283-11.93z"/><path style="fill:#ffa304" d="M394.571 469.218c-.521-.663-52.134-67.745-52.134-196.817 0-42.092-12.387-74.002-36.816-94.844-38.056-32.466-91.705-26.378-99.373-25.31 19.259 2.335 42.491 8.892 61.736 25.31 24.429 20.841 36.816 52.752 36.816 94.844 0 129.073 51.613 196.154 52.134 196.817.724.921 3.843 4.116 7.366 7.886a646.448 646.448 0 0 1 22.985 4.043 7.455 7.455 0 0 0 7.286-11.929z"/><path style="fill:#ffeb99" d="M342.437 272.4c0-42.092-12.387-74.002-36.816-94.844-38.4-32.759-92.684-26.264-99.577-25.281-4.656.006-30.285.804-57.232 16.744-17.132 10.133-31.252 24.291-41.968 42.079-13.146 21.823-21.118 49.149-23.703 81.219a7.392 7.392 0 0 0 2.182-.901c.806-.489 31.029-18.632 77.885-28.617 27.295-5.814 54.811-7.734 81.784-5.703 33.527 2.526 66.351 11.204 97.566 25.793a482.094 482.094 0 0 1-.121-10.489z"/><path style="fill:#e8d68b" d="M342.437 272.4c0-42.092-12.387-74.002-36.816-94.844-38.056-32.466-91.704-26.378-99.372-25.31 19.259 2.335 42.491 8.892 61.736 25.31 23.642 20.169 36.005 50.708 36.776 90.809a287.13 287.13 0 0 1 37.797 14.523 481.928 481.928 0 0 1-.121-10.488z"/></svg>