<svg xmlns="http://www.w3.org/2000/svg" viewBox="0 0 512 512" style="enable-background:new 0 0 512 512" xml:space="preserve"><path style="fill:#589b38" d="M214.94 477.618s36.847 12.263 82.134 8.877l35.277-31.048-44.979-70.23-102.447 10.189 4.26 42.681"/><path style="fill:#66b246" d="M340.625 370.496c29.781 10.771 88.42 9.99 85.958-39.392-4.249-85.259 34.326-87.84 34.326-87.84-36.398 36.398 3.302 51.489 3.302 125.8 0 51.844-62 86.857-114.863 104.447"/><path style="fill:#75cc54" d="M507.206 161.424c-5.397 9.351-14.796 15.577-26.609 18.619-21.992 5.682-52.365.391-80.963-16.122 0 0-5.693 1.349-12.642 4.9-10.819 5.54-24.656 16.417-24.656 35.889 0 31.971 39.961 74.595 39.961 103.902 0 23.91-23.058 52.259-56.153 61.87v.012l2.722 32.077c9.008 3.22 15.471 11.801 15.471 21.921 0 8.735-4.806 16.323-11.896 20.324l3.243 38.292h6.652c15.447 0 27.982 12.523 27.982 27.97H297.07v-70.594a113.241 113.241 0 0 1-41.061 7.706c-7.99 0-15.979-.84-23.815-2.533 0 0-.012 0-.012-.012a111.736 111.736 0 0 1-17.246-5.161v70.594h-93.249a27.885 27.885 0 0 1 8.191-19.779c5.066-5.054 12.05-8.191 19.779-8.191h6.664l3.243-38.292c-7.102-4.001-11.896-11.588-11.896-20.324 0-1.74.189-3.433.568-5.066 1.728-7.848 7.445-14.192 14.902-16.855l2.391-28.23.32-3.847v-.012c-33.095-9.611-56.153-37.96-56.153-61.87 0-29.308 39.961-71.931 39.961-103.902 0-31.959-37.285-40.789-37.285-40.789-6.321 3.646-12.713 6.747-19.104 9.292l-.059.036c-10.89 4.356-21.708 7.114-31.923 8.309-25.425 2.983-47.063-3.788-56.496-20.134-15.435-26.763 7.682-69.019 51.631-94.397 27.094-15.648 56.224-21.708 77.814-17.376 9.067 1.823 16.808 5.48 22.501 11.032 14.038 13.695 28.148 44.743 32.764 58.97h.012c-1.764 8.605-2.699 17.708-2.699 27.118 0 2.036.047 4.06.13 6.06.793 18.406 5.184 35.439 12.192 49.702v.012c.296 4.32.45 8.57.45 12.724-.012 15.08-2.107 28.917-7.291 40.067-17.518 37.664 9.895 42.505 30.728 41.393l2.687-50.105.616-11.387.012-.012c8.984 6.06 19.045 9.446 29.663 9.446 10.617 0 20.679-3.385 29.674-9.434l.616 11.399 2.699 50.093c2.332.13 4.758.178 7.185.118 19.235-.509 39.096-8.073 23.543-41.511-5.184-11.15-7.28-24.987-7.291-40.067 0-4.155.154-8.404.45-12.724v-.012c7.007-14.263 11.399-31.296 12.192-49.702.083-2 .13-4.024.13-6.06 0-9.41-.935-18.513-2.699-27.118h.012c4.616-14.228 18.726-45.275 32.764-58.97 13.375-13.044 38.043-15.624 64.758-8.511 11.718 3.101 23.827 8.084 35.557 14.855 43.946 25.378 67.063 67.635 51.616 94.397z"/><path style="fill:#66b246" d="M165.854 370.496v-.012c-33.095-9.611-56.153-37.96-56.153-61.87 0-29.308 39.961-71.931 39.961-103.902 0-31.959-37.285-40.789-37.285-40.789-6.321 3.646-12.713 6.747-19.104 9.292l33.036-17.921s44.672 8.972 44.672 55.135-59.716 109.655 6.238 162.541l-11.365-2.474zM61.289 181.56c-25.425 2.983-47.063-3.788-56.496-20.134-15.435-26.763 7.682-69.019 51.631-94.397 27.094-15.648 56.224-21.708 77.814-17.376 0-.001-121.089 54.519-72.949 131.907z"/><path style="fill:#66b246" d="M232.186 445.647a111.736 111.736 0 0 1-17.246-5.161v70.594h-93.249a27.885 27.885 0 0 1 8.191-19.779c5.066-5.054 12.05-8.191 19.779-8.191h6.664l3.243-38.292c-7.102-4.001-11.896-11.588-11.896-20.324 0-1.74.189-3.433.568-5.066 1.728-7.848 7.445-14.192 14.902-16.855l2.706-32.09 11.368 2.487c9.636 46.98 53.597 71.92 54.97 72.677z"/><path style="fill:#75cc54" d="M325.199 146.772c0 20.726-4.545 39.949-12.322 55.762v.012c-6.865 13.991-16.24 25.319-27.201 32.693-8.996 6.049-19.057 9.434-29.674 9.434s-20.679-3.385-29.663-9.446c-10.961-7.362-20.335-18.69-27.201-32.681v-.012c-7.777-15.814-12.322-35.036-12.322-55.762 0-9.41.935-18.513 2.699-27.118 8.297-40.884 34.93-70.783 66.486-70.783 5.125 0 10.108.781 14.914 2.284 24.81 7.706 44.636 34.243 51.584 68.499 1.765 8.605 2.7 17.708 2.7 27.118z"/><path style="fill:#66b246" d="M199.134 202.545c.296 4.32.45 8.57.45 12.724a30.863 30.863 0 0 1-.45-.888v-.012c-7.777-15.814-12.322-35.036-12.322-55.762 0-1.941.036-3.871.13-5.776.793 18.406 5.184 35.439 12.192 49.702v.012zM285.671 235.238l.616 11.399c-.201.154-.414.296-.616.438-8.996 6.049-19.057 9.434-29.674 9.434s-20.679-3.385-29.663-9.446a11.673 11.673 0 0 1-.627-.438l.616-11.387.012-.012c8.984 6.06 19.045 9.446 29.663 9.446 10.616 0 20.677-3.386 29.673-9.434zM325.194 158.607c0 20.726-4.545 39.949-12.322 55.762v.012c-.142.296-.296.592-.45.888 0-4.155.154-8.404.45-12.724v-.012c7.007-14.263 11.399-31.296 12.192-49.702.094 1.906.13 3.835.13 5.776z"/><path style="fill:#66b246" d="m288.986 296.73 7.19.12c19.235-.509 39.096-8.073 23.543-41.511-6.617-14.228-8.203-32.835-6.842-52.791v-.012c7.777-15.814 12.322-35.036 12.322-55.762 0-9.41-.935-18.513-2.699-27.118h.012c4.616-14.228 18.726-45.275 32.764-58.97 13.375-13.044 38.043-15.624 64.758-8.511-1.267.296-2.616.58-4.036.829-66.286 11.836-94.542 123.926-73.388 194.12 18.832 62.49-16.795 75.813-37.962 78.4-7.585.927-14.364-4.763-14.776-12.393l-.886-16.401M226.327 235.239l-3.302 61.491-1.574 29.201c10.899 0 19.934-8.447 20.667-19.321l4.238-62.885-20.029-8.486z"/><path style="fill:#66b246" d="M256.002 244.673c-10.617 0-20.679-3.385-29.663-9.446-10.961-7.362-20.335-18.69-27.201-32.681v-.012c-7.777-15.814-12.322-35.036-12.322-55.762 0-9.41.935-18.513 2.699-27.118 8.297-40.884 34.93-70.783 66.486-70.783 5.125 0 10.108.781 14.914 2.284.001 0-141.558 114.613-14.913 193.518z"/><path style="fill:#666" d="M49.768 118.73a5.918 5.918 0 0 1-5.671-7.62l3.996-13.32a5.915 5.915 0 0 1 7.369-3.968 5.918 5.918 0 0 1 3.968 7.369l-3.996 13.32a5.92 5.92 0 0 1-5.666 4.219zM81.737 130.718a5.918 5.918 0 0 1-5.671-7.62l3.996-13.32a5.918 5.918 0 0 1 11.337 3.401l-3.996 13.32a5.92 5.92 0 0 1-5.666 4.219zM227.298 159.32a5.919 5.919 0 0 1-5.918-5.918v-22.084a5.919 5.919 0 0 1 11.836 0v22.084a5.918 5.918 0 0 1-5.918 5.918zM284.715 159.32a5.919 5.919 0 0 1-5.918-5.918v-22.084a5.919 5.919 0 0 1 11.836 0v22.084a5.919 5.919 0 0 1-5.918 5.918z"/><path style="fill:#eff9b4" d="M63.617 63.672c-.295-.653-.384-.955-.542-1.393a45.43 45.43 0 0 1-1.03-3.472 56.531 56.531 0 0 1-.966-4.52 60.796 60.796 0 0 1-.894-9.015c-.161-5.996.632-11.972 2.334-17.561 1.699-5.596 4.37-10.758 7.678-15.248C73.542 7.985 77.474 4.151 81.734.921c-3.218 4.277-5.831 8.902-7.649 13.683-1.787 4.797-2.745 9.747-2.817 14.605s.658 9.615 2.087 14.097a46.283 46.283 0 0 0 2.593 6.482 39.505 39.505 0 0 0 1.613 2.996 27.359 27.359 0 0 0 1.307 2.013c.124.16.327.453.341.386a8.877 8.877 0 0 1-15.592 8.489zM113.711 88.846c-.295-.653-.384-.955-.543-1.393a45.43 45.43 0 0 1-1.03-3.472 56.531 56.531 0 0 1-.966-4.52 60.81 60.81 0 0 1-.894-9.015c-.161-5.996.632-11.972 2.334-17.561 1.699-5.595 4.37-10.758 7.678-15.248 3.345-4.478 7.277-8.311 11.537-11.541-3.218 4.277-5.831 8.902-7.649 13.683-1.787 4.797-2.745 9.747-2.817 14.605a44.242 44.242 0 0 0 2.087 14.097 46.283 46.283 0 0 0 2.593 6.482 39.505 39.505 0 0 0 1.613 2.996 27.359 27.359 0 0 0 1.307 2.013c.124.16.327.453.341.386a8.876 8.876 0 0 1-3.552 12.041c-4.304 2.344-9.695.753-12.039-3.553z"/><path style="fill:#666" d="M462.244 118.73a5.92 5.92 0 0 1-5.666-4.219l-3.996-13.32a5.918 5.918 0 1 1 11.338-3.401l3.996 13.32a5.918 5.918 0 0 1-5.672 7.62zM430.276 130.718a5.92 5.92 0 0 1-5.666-4.219l-3.996-13.32a5.918 5.918 0 1 1 11.338-3.401l3.996 13.32a5.918 5.918 0 0 1-5.672 7.62z"/><path style="fill:#eff9b4" d="M432.802 55.181c.015.067.217-.225.341-.386a26.918 26.918 0 0 0 1.307-2.013 39.505 39.505 0 0 0 1.613-2.996 46.405 46.405 0 0 0 2.593-6.482 44.255 44.255 0 0 0 2.087-14.097c-.072-4.858-1.03-9.807-2.817-14.605-1.818-4.781-4.43-9.407-7.649-13.683 4.26 3.23 8.192 7.063 11.537 11.542 3.308 4.488 5.98 9.652 7.678 15.248 1.702 5.589 2.495 11.564 2.334 17.561a60.689 60.689 0 0 1-.894 9.015 56.004 56.004 0 0 1-.966 4.52 45.728 45.728 0 0 1-1.03 3.472c-.159.438-.249.741-.543 1.393a8.877 8.877 0 1 1-15.591-8.489zM382.708 80.356c.015.067.217-.225.341-.386a26.918 26.918 0 0 0 1.307-2.013 39.505 39.505 0 0 0 1.613-2.996 46.356 46.356 0 0 0 2.593-6.482c1.429-4.483 2.159-9.24 2.087-14.097s-1.03-9.807-2.817-14.605c-1.818-4.781-4.43-9.407-7.649-13.683 4.26 3.23 8.192 7.063 11.537 11.541 3.308 4.49 5.98 9.652 7.678 15.248 1.702 5.589 2.495 11.564 2.334 17.561a60.689 60.689 0 0 1-.894 9.015 56.189 56.189 0 0 1-.966 4.52 45.728 45.728 0 0 1-1.03 3.472c-.159.438-.249.741-.542 1.393a8.876 8.876 0 0 1-12.041 3.552c-4.305-2.343-5.895-7.733-3.551-12.04zM231.671 88.643c-.548-.943-.888-1.635-1.304-2.44l-1.145-2.322a142.314 142.314 0 0 1-2.114-4.648 142.717 142.717 0 0 1-3.701-9.428c-2.219-6.36-4.047-12.851-5.168-19.487-1.146-6.613-1.606-13.385-.982-20.031.341-3.319.91-6.599 1.851-9.755a45.042 45.042 0 0 1 3.818-8.956 43.866 43.866 0 0 0-1.633 9.345c-.185 3.128.008 6.241.402 9.297.852 6.117 2.675 12.014 5.076 17.645 2.374 5.639 5.356 11.018 8.634 16.163a127.692 127.692 0 0 0 5.199 7.509 123.053 123.053 0 0 0 2.769 3.579l1.418 1.717c.455.53.992 1.172 1.359 1.534a9 9 0 0 1 .091 12.727c-3.489 3.539-9.188 3.581-12.727.091a9.023 9.023 0 0 1-1.443-1.848l-.4-.692zM263.681 78.368c.368-.362.904-1.004 1.359-1.534l1.418-1.717a129.002 129.002 0 0 0 7.968-11.088c3.278-5.145 6.26-10.524 8.634-16.163 2.4-5.631 4.223-11.527 5.076-17.645.394-3.055.587-6.168.402-9.297a43.866 43.866 0 0 0-1.633-9.345 45.045 45.045 0 0 1 3.819 8.956c.941 3.156 1.51 6.436 1.851 9.755.623 6.646.163 13.418-.982 20.031-1.122 6.636-2.949 13.127-5.168 19.487a143.713 143.713 0 0 1-5.815 14.076l-1.145 2.322c-.417.805-.756 1.496-1.304 2.44l-.38.655a9 9 0 1 1-14.1-10.933z"/><path style="fill:#66b246" d="m322.827 431.158-25.745 9.327-.012.012v-.012a113.241 113.241 0 0 1-41.061 7.706c-7.99 0-15.979-.84-23.815-2.533 0 0-.012 0-.012-.012a111.736 111.736 0 0 1-17.246-5.161l-25.745-9.327 23.26 2.592a393.398 393.398 0 0 0 87.114 0l23.262-2.592zM231.837 215.009c-3.407 0-6.307-2.75-6.499-6.143-.208-3.665 2.817-6.883 6.494-6.871 3.68.012 6.715 3.183 6.505 6.871-.192 3.392-3.093 6.143-6.5 6.143zM280.179 215.009c-3.384 0-6.265-2.707-6.495-6.085-.234-3.453 2.398-6.524 5.815-6.89 3.55-.38 6.788 2.288 7.152 5.827.387 3.765-2.694 7.148-6.472 7.148zM399.635 163.922s-5.693 1.349-12.642 4.9c-10.665-13.458-15.376-33.001-15.565-33.805 5.93 13.02 28.207 28.905 28.207 28.905z"/></svg>