<?xml version="1.0" standalone="no"?>
<!DOCTYPE svg PUBLIC "-//W3C//DTD SVG 20010904//EN"
 "http://www.w3.org/TR/2001/REC-SVG-20010904/DTD/svg10.dtd">
<svg version="1.0" xmlns="http://www.w3.org/2000/svg"
 width="150.000000pt" height="150.000000pt" viewBox="0 0 150.000000 150.000000"
 preserveAspectRatio="xMidYMid meet">

<g transform="translate(0.000000,150.000000) scale(0.100000,-0.100000)"
fill="#000000" stroke="none">
<path d="M791 1444 c-13 -17 -21 -41 -21 -65 0 -43 -9 -48 -33 -21 -23 25 -21
35 5 27 17 -6 20 -4 15 10 -4 9 -7 23 -7 30 0 30 -36 36 -83 15 -52 -23 -60
-39 -47 -95 5 -22 8 -41 6 -42 -2 -2 -16 1 -31 7 -34 13 -65 4 -65 -18 0 -9
11 -41 25 -70 14 -30 32 -81 41 -115 8 -33 27 -83 41 -111 l25 -50 -17 -131
c-9 -71 -34 -260 -56 -418 -22 -159 -39 -299 -37 -310 5 -36 20 -21 38 35 17
55 47 118 56 118 3 0 18 -30 35 -67 27 -61 31 -65 43 -47 14 19 15 18 38 -3
32 -30 35 -29 43 10 4 17 13 47 21 65 12 29 16 32 34 22 16 -9 20 -8 20 6 0
14 3 14 15 4 9 -7 18 -11 20 -8 3 3 8 47 11 99 4 66 -2 167 -20 341 -35 333
-35 333 9 360 20 11 42 35 50 54 8 19 20 34 28 34 8 0 24 8 35 18 17 15 19 26
13 105 l-6 88 -37 -31 c-32 -26 -38 -38 -38 -70 0 -42 -19 -57 -50 -40 -25 14
-38 39 -61 119 -23 80 -24 98 -6 82 18 -14 27 -4 27 29 0 27 -26 60 -48 60 -6
0 -20 -12 -31 -26z m-161 -169 c0 -8 -4 -15 -10 -15 -5 0 -7 7 -4 15 4 8 8 15
10 15 2 0 4 -7 4 -15z"/>
</g>
</svg>
