<?xml version="1.0" standalone="no"?>
<!DOCTYPE svg PUBLIC "-//W3C//DTD SVG 20010904//EN"
 "http://www.w3.org/TR/2001/REC-SVG-20010904/DTD/svg10.dtd">
<svg version="1.0" xmlns="http://www.w3.org/2000/svg"
 width="580.000000pt" height="200.000000pt" viewBox="0 0 580.000000 200.000000"
 preserveAspectRatio="xMidYMid meet">

<g transform="translate(0.000000,200.000000) scale(0.100000,-0.100000)"
fill="#000000" stroke="none">
<path d="M0 1000 l0 -1000 2900 0 2900 0 0 1000 0 1000 -2900 0 -2900 0 0
-1000z m2553 828 c20 -24 22 -51 5 -78 -10 -16 -10 -22 3 -32 97 -80 42 -228
-85 -228 -68 0 -115 29 -135 83 -18 48 -12 73 29 120 34 38 40 52 40 89 0 36
4 47 23 56 51 26 92 22 120 -10z m-361 5 c16 -14 18 -33 18 -158 0 -149 -4
-165 -46 -165 -33 0 -38 27 -35 175 3 161 16 191 63 148z m1161 -31 c28 -24
57 -97 57 -141 0 -26 -9 -51 -29 -78 -44 -60 -67 -73 -134 -73 -96 0 -138 48
-140 159 -1 73 28 121 92 152 52 25 57 26 95 13 22 -8 49 -22 59 -32z m378 27
c34 -24 62 -83 53 -113 -3 -12 -13 -36 -21 -53 -14 -31 -14 -36 6 -79 26 -55
22 -74 -16 -74 -30 0 -56 23 -67 58 -8 25 -33 35 -43 19 -4 -7 -12 -25 -18
-42 -8 -24 -16 -30 -40 -30 l-30 0 -3 149 c-3 181 -1 186 91 186 44 0 66 -5
88 -21z m261 4 c16 -14 18 -33 18 -150 0 -74 -5 -143 -10 -154 -11 -19 -54
-27 -64 -10 -12 18 -8 302 4 316 16 19 29 19 52 -2z m333 -28 c31 -60 87 -238
83 -266 -6 -44 -78 -34 -78 11 0 23 -17 36 -57 43 -30 6 -33 3 -54 -38 -17
-33 -28 -45 -45 -45 -33 0 -49 25 -35 56 6 14 11 36 11 50 0 23 3 33 28 81 7
13 12 27 12 33 0 5 11 35 25 65 23 53 26 56 57 53 25 -2 36 -11 53 -43z m426
23 c23 -29 24 -56 2 -80 -17 -19 -16 -20 4 -36 63 -50 66 -133 6 -189 -31 -30
-40 -33 -94 -33 -54 0 -64 3 -95 33 -44 41 -54 92 -29 147 10 22 24 40 32 40
7 0 13 5 13 10 0 6 6 9 13 8 6 -2 10 4 8 12 -10 31 -3 71 14 90 27 29 100 28
126 -2z m-2943 -52 c3 -44 6 -49 39 -62 44 -19 53 -10 53 57 0 50 13 69 47 69
32 0 53 -49 43 -96 -4 -19 -6 -73 -4 -120 4 -97 -3 -114 -47 -114 -34 0 -44
14 -40 57 3 33 -17 53 -66 68 -21 6 -23 3 -23 -34 0 -59 -15 -91 -44 -91 -44
0 -49 18 -42 172 3 90 10 144 17 149 6 3 23 3 38 0 23 -6 26 -13 29 -55z
m1177 47 c8 -8 15 -21 15 -28 0 -23 -31 -47 -54 -41 -43 11 -51 -6 -56 -126
l-5 -113 -35 0 -35 0 -3 118 c-3 113 -3 117 -25 117 -65 1 -94 35 -61 71 16
18 30 20 131 18 85 -1 118 -5 128 -16z m-2343 -147 c15 -21 8 -76 -11 -95 -19
-19 -19 -20 0 -82 22 -71 34 -89 58 -89 13 0 16 7 14 33 -3 24 4 40 27 65 30
33 76 57 83 44 2 -4 3 -52 3 -107 -1 -93 -3 -100 -23 -111 -13 -6 -20 -14 -16
-17 3 -4 -2 -7 -11 -7 -10 0 -22 -12 -29 -30 -7 -18 -25 -36 -44 -45 l-33 -16
4 -117 c3 -64 9 -160 15 -212 27 -224 31 -433 10 -455 -4 -3 -19 -8 -35 -11
-15 -3 -31 -7 -36 -10 -4 -3 -8 0 -8 7 0 34 -15 -9 -27 -76 -3 -16 -10 -33
-15 -36 -12 -8 -48 0 -48 10 0 3 -16 6 -35 5 -29 -2 -36 2 -41 22 -3 13 -9 24
-13 24 -4 0 -7 10 -8 21 -1 12 -7 27 -12 32 -12 12 -45 -56 -56 -115 -7 -37
-31 -56 -48 -39 -14 14 0 189 31 386 19 116 47 332 58 450 5 52 2 68 -21 119
-15 32 -29 75 -32 95 -3 20 -19 64 -35 99 -44 98 -36 140 24 133 27 -2 28 0
28 40 0 46 21 79 52 79 10 0 18 5 18 10 0 16 62 12 81 -6 16 -14 18 -14 28 4
18 34 81 32 103 -2z m123 -116 c-3 -5 -12 -10 -18 -10 -7 0 -6 4 3 10 19 12
23 12 15 0z m3015 -124 c0 -2 -7 -7 -16 -10 -8 -3 -12 -2 -9 4 6 10 25 14 25
6z m1636 -19 c36 -18 74 -84 74 -126 0 -17 -3 -31 -8 -31 -4 0 -12 -10 -17
-22 -7 -17 -21 -24 -49 -28 l-38 -5 47 -35 c58 -44 125 -119 125 -142 0 -9 5
-20 10 -23 6 -3 10 -31 10 -62 0 -84 -37 -159 -100 -202 -51 -35 -59 -44 -37
-39 23 4 54 -12 67 -37 11 -20 10 -29 -5 -61 -24 -51 -81 -103 -143 -131 -63
-28 -179 -31 -255 -8 -71 21 -160 79 -204 131 -21 25 -42 51 -48 57 -5 7 -30
55 -55 107 -24 52 -50 101 -57 109 -12 14 -130 50 -166 51 -9 0 -25 -9 -34
-19 -17 -20 -43 -86 -43 -110 0 -25 -42 -61 -70 -61 -42 0 -70 26 -70 66 0 19
4 42 10 52 5 9 23 64 40 122 17 58 36 113 41 122 5 10 9 26 9 36 0 10 3 21 6
25 8 8 53 138 54 155 0 7 11 30 24 51 14 21 22 42 18 46 -4 4 -2 6 3 4 6 -1
24 3 40 10 19 8 40 9 58 4 28 -8 32 -14 128 -205 5 -10 9 -25 9 -33 0 -8 4
-15 9 -15 5 0 11 -15 14 -32 3 -18 21 -79 41 -136 20 -57 36 -109 36 -115 0
-22 74 -163 107 -205 34 -42 86 -72 168 -96 58 -18 138 -1 174 36 37 38 61 67
61 73 0 2 -10 1 -22 -3 -13 -5 -54 -7 -92 -6 -114 4 -209 60 -252 151 -41 84
-26 184 38 253 13 14 22 28 21 32 -2 5 6 8 16 8 11 0 21 5 23 12 2 6 24 11 51
11 26 -1 47 1 47 4 0 9 -28 32 -34 28 -3 -3 -4 -2 -1 1 2 4 -2 16 -10 28 -9
12 -15 43 -15 75 0 63 27 107 82 135 39 20 119 16 164 -7z m-4195 -1 c93 -7
158 -33 190 -78 21 -28 24 -44 24 -118 0 -75 -3 -91 -28 -132 -25 -43 -60 -76
-112 -104 -11 -6 -47 -26 -80 -44 -97 -53 -125 -88 -125 -154 0 -19 -5 -38
-12 -42 -20 -12 -98 -22 -98 -12 0 5 -12 21 -27 35 -16 15 -23 23 -16 20 17
-10 27 140 21 328 -5 143 2 258 16 273 14 14 113 40 140 36 17 -2 65 -6 107
-8z m1310 -6 c46 -13 111 -59 125 -91 40 -87 34 -170 -20 -281 l-28 -57 21
-54 c29 -78 112 -236 146 -280 17 -21 50 -48 75 -60 25 -12 48 -25 51 -30 3
-4 38 -10 77 -12 88 -6 137 11 172 61 14 19 38 42 54 50 27 15 31 15 55 -4 21
-16 26 -28 25 -60 -1 -35 -7 -47 -50 -87 -76 -73 -131 -97 -223 -97 -83 0
-181 27 -236 64 -16 12 -54 45 -83 75 -32 32 -58 51 -65 47 -7 -4 -29 -20 -49
-36 -20 -16 -47 -31 -60 -34 -73 -16 -159 -24 -198 -19 -61 8 -130 28 -130 37
0 4 -6 8 -14 8 -18 0 -67 26 -61 32 3 2 -7 11 -23 19 -15 8 -37 24 -50 36 -12
13 -34 26 -47 29 -14 3 -25 10 -25 14 0 21 -128 50 -222 50 -88 0 -159 24
-173 58 -10 25 -6 519 5 546 19 51 40 56 240 56 178 0 187 -1 216 -22 36 -28
41 -62 13 -91 -19 -20 -32 -22 -177 -27 l-157 -5 -5 -35 c-3 -19 -2 -45 4 -57
8 -21 16 -23 76 -23 84 0 103 -13 103 -70 0 -54 -20 -70 -84 -70 -82 0 -113
-22 -101 -72 4 -18 22 -24 132 -48 30 -7 71 -19 90 -27 98 -41 154 -70 175
-89 34 -32 114 -84 129 -84 6 0 16 -4 21 -9 20 -19 114 -31 164 -21 44 8 86
25 101 40 3 3 17 11 32 19 l27 14 -18 36 c-10 20 -27 54 -37 76 -29 63 -53 85
-91 85 -53 0 -83 -34 -87 -99 -2 -43 -8 -57 -27 -72 -29 -22 -48 -24 -83 -5
l-27 14 1 286 c1 343 3 353 75 379 53 18 170 17 246 -3z m455 -9 c16 -5 55
-17 87 -26 32 -9 75 -32 97 -50 22 -18 43 -35 47 -37 10 -4 46 -55 74 -105 20
-34 22 -51 21 -155 -1 -106 -4 -121 -26 -155 -67 -105 -210 -173 -318 -152
-24 4 -69 8 -101 9 -57 0 -58 1 -73 36 -9 20 -13 46 -10 58 3 12 1 28 -4 36
-5 8 -5 21 1 31 5 10 9 109 10 221 1 222 9 260 59 285 29 15 95 17 136 4z
m595 -12 c5 -8 9 -146 9 -307 0 -260 -2 -297 -17 -323 -15 -25 -24 -29 -59
-29 -23 0 -46 6 -53 13 -7 9 -11 116 -11 327 -1 292 0 315 17 328 22 17 102
10 114 -9z m436 -13 c86 -29 122 -55 171 -121 76 -102 85 -136 72 -258 -12
-110 -23 -137 -69 -181 -17 -16 -28 -34 -24 -39 3 -6 1 -7 -5 -3 -7 4 -33 -4
-60 -18 -71 -38 -121 -48 -182 -36 -29 5 -76 10 -105 10 -46 0 -55 3 -70 27
-16 24 -17 48 -11 282 4 141 12 275 18 297 19 78 112 92 265 40z m-939 -1051
c0 -17 -6 -25 -17 -24 -9 0 -11 3 -5 5 7 3 10 14 7 24 -3 11 -1 20 5 20 5 0
10 -11 10 -25z m-366 -107 c-4 -33 -2 -38 16 -38 21 0 32 -16 25 -37 -6 -14
-64 -6 -75 11 -11 16 -9 91 3 123 l11 28 13 -24 c7 -14 10 -41 7 -63z m-628
50 c14 -23 -8 -48 -26 -30 -20 20 -28 14 -28 -23 0 -39 5 -42 31 -19 17 15 19
14 25 -11 8 -30 0 -41 -37 -50 -38 -9 -59 16 -59 72 0 55 22 85 58 81 14 -2
30 -11 36 -20z m184 2 c16 -18 18 -28 11 -67 -11 -57 -23 -72 -52 -66 -59 15
-78 85 -35 130 27 28 51 29 76 3z m197 -60 c-1 -33 -5 -63 -8 -67 -4 -3 -18
-1 -31 5 -18 8 -26 8 -29 -1 -8 -24 -12 10 -7 53 l5 45 19 -43 c27 -60 39 -53
34 23 -3 48 -1 62 8 54 7 -6 11 -33 9 -69z m463 62 c2 -7 -5 -16 -17 -19 -12
-3 -21 -12 -21 -19 0 -8 -4 -14 -10 -14 -21 0 -10 39 13 43 18 4 18 4 -6 6
-28 1 -28 1 -25 -56 3 -52 5 -58 26 -59 18 -1 19 -1 2 3 -31 7 -27 49 5 55 27
6 35 -9 10 -18 -12 -5 -10 -10 8 -24 26 -21 21 -30 -21 -35 -24 -3 -31 0 -36
18 -8 29 -8 101 0 122 8 19 65 17 72 -3z m158 10 c21 -14 32 -47 27 -87 -5
-48 -13 -58 -48 -58 -37 0 -47 14 -53 71 -3 37 0 52 13 65 17 18 43 22 61 9z
m506 -32 c-8 -14 -9 -27 -1 -47 21 -55 -9 -93 -31 -39 -6 15 -9 16 -9 5 -1 -9
-8 -19 -16 -23 -19 -7 -27 25 -23 85 3 40 5 44 32 46 15 1 31 5 34 8 14 13 26
-16 14 -35z m180 23 c19 -17 25 -68 8 -78 -6 -4 -8 -10 -5 -15 8 -12 -4 -38
-21 -44 -8 -3 -24 0 -34 7 -16 9 -20 23 -20 67 0 76 29 102 72 63z m195 -43
c3 -14 9 -30 14 -36 10 -13 0 -54 -13 -54 -6 0 -8 7 -5 15 4 8 -2 38 -12 67
l-19 53 -12 -30 c-12 -31 -25 -100 -14 -77 7 14 54 17 54 3 0 -6 -9 -8 -19 -6
-15 3 -18 -1 -14 -12 4 -11 2 -14 -5 -9 -7 4 -12 2 -12 -6 0 -9 -4 -8 -15 3
-19 18 -8 82 20 126 17 26 18 26 32 7 8 -10 17 -30 20 -44z m156 20 c3 -11 1
-23 -4 -26 -5 -3 -5 -13 1 -25 16 -29 30 -13 28 32 -1 37 14 70 28 57 3 -4 7
-33 9 -66 3 -59 2 -60 -31 -78 -33 -18 -34 -18 -54 1 -22 23 -35 112 -18 133
13 15 33 1 41 -28z m236 31 c12 -7 9 -17 -12 -54 -26 -43 -26 -45 -7 -50 28
-7 16 -34 -18 -40 -16 -3 -33 0 -41 8 -12 12 -12 20 4 55 15 34 16 43 5 50 -7
4 -10 15 -7 24 7 17 53 22 76 7z m169 -9 c2 -7 -5 -16 -17 -19 -12 -3 -21 -12
-21 -19 0 -8 -4 -14 -10 -14 -21 0 -10 39 13 43 18 4 18 4 -6 6 -28 1 -28 1
-25 -56 3 -52 5 -58 26 -59 18 -1 19 -1 2 3 -31 7 -27 49 5 55 28 6 34 -9 9
-19 -15 -5 -15 -7 0 -15 25 -14 19 -35 -11 -41 -16 -3 -30 -3 -32 -1 -8 8 -13
104 -7 129 6 22 11 26 38 23 17 -2 33 -9 36 -16z m-2123 -2 c3 -5 12 -7 20 -3
12 4 15 -4 15 -36 0 -23 -2 -41 -5 -41 -2 0 -15 19 -27 43 l-23 42 -6 -55 c-5
-44 -6 -47 -7 -17 -1 20 -7 37 -14 37 -6 0 -3 9 7 20 20 22 31 25 40 10z m841
-1 c5 -8 9 -7 14 1 4 7 15 10 24 7 22 -9 23 -115 1 -123 -8 -4 -22 -1 -30 6
-12 10 -15 9 -15 -4 0 -14 -4 -15 -20 -6 -16 8 -20 21 -20 58 0 58 26 92 46
61z m690 -71 c-14 -9 -20 7 -11 30 6 15 8 15 15 -3 4 -12 3 -23 -4 -27z"/>
<path d="M2440 1820 c-34 -34 -25 -62 40 -123 48 -44 60 -61 60 -85 0 -58 -77
-83 -118 -39 -29 31 -28 61 5 85 17 13 24 25 20 36 -10 24 -35 19 -68 -13 -69
-70 -8 -181 99 -181 40 0 91 36 108 76 23 54 5 95 -62 146 -52 39 -69 68 -40
68 7 0 16 -9 19 -20 7 -28 43 -26 50 2 4 13 0 33 -9 45 -19 30 -76 31 -104 3z"/>
<path d="M2442 1652 c-37 -31 -39 -42 -14 -65 29 -26 76 -22 92 8 13 24 12 28
-16 55 l-29 29 -33 -27z"/>
<path d="M2146 1814 c-3 -9 -6 -76 -6 -149 0 -115 2 -134 17 -139 9 -4 20 -3
23 1 9 9 20 272 13 291 -7 17 -40 15 -47 -4z"/>
<path d="M3232 1819 c-73 -15 -116 -84 -110 -172 4 -54 8 -63 41 -93 30 -28
45 -34 79 -34 85 0 148 66 148 153 0 101 -70 165 -158 146z m78 -67 c16 -13
24 -32 28 -70 4 -47 2 -54 -26 -82 -38 -38 -79 -40 -116 -5 -30 28 -35 79 -11
125 27 51 83 66 125 32z"/>
<path d="M3233 1750 c-30 -12 -43 -41 -43 -92 0 -38 4 -46 29 -61 39 -23 45
-22 80 16 34 36 36 46 19 93 -9 25 -46 58 -61 53 -1 0 -12 -4 -24 -9z"/>
<path d="M3608 1832 c-45 -6 -49 -19 -46 -168 3 -130 4 -139 23 -139 14 0 21
9 26 34 13 64 62 67 96 6 40 -71 74 -46 42 32 -11 27 -10 39 6 85 21 63 13
102 -26 129 -26 18 -77 27 -121 21z m94 -65 c13 -20 9 -60 -9 -79 -18 -21 -53
-24 -71 -6 -17 17 -15 74 4 93 18 18 63 13 76 -8z"/>
<path d="M3637 1763 c-4 -3 -7 -21 -7 -40 0 -28 3 -33 24 -33 36 0 51 28 34
63 -9 17 -38 23 -51 10z"/>
<path d="M3946 1814 c-3 -9 -6 -76 -6 -149 0 -115 2 -134 17 -139 9 -4 20 -3
23 1 9 9 20 272 13 291 -7 17 -40 15 -47 -4z"/>
<path d="M4247 1825 c-16 -16 -97 -250 -97 -280 0 -32 42 -12 55 25 11 32 15
35 52 34 56 -1 72 -9 84 -44 11 -31 45 -42 54 -17 7 16 -70 235 -93 266 -24
32 -36 35 -55 16z m42 -107 c23 -62 23 -68 2 -68 -34 0 -51 26 -39 60 12 36
25 38 37 8z"/>
<path d="M4270 1680 c0 -5 5 -10 10 -10 6 0 10 5 10 10 0 6 -4 10 -10 10 -5 0
-10 -4 -10 -10z"/>
<path d="M4637 1822 c-32 -36 -21 -68 43 -129 65 -61 74 -89 40 -123 -43 -43
-120 -14 -120 44 0 25 6 35 25 44 28 13 33 40 9 49 -25 9 -68 -22 -80 -58 -21
-62 11 -121 78 -141 82 -24 158 29 158 112 0 29 -9 43 -60 91 -60 56 -73 79
-45 79 9 0 15 -9 15 -21 0 -30 44 -22 48 9 8 53 -74 85 -111 44z"/>
<path d="M4659 1683 c-1 -7 -2 -17 -3 -23 0 -5 -5 -10 -11 -11 -16 -1 -35 -20
-35 -36 0 -46 87 -59 108 -15 10 21 7 28 -23 60 -19 20 -35 31 -36 25z"/>
<path d="M1923 1818 c-4 -7 -8 -37 -9 -67 -2 -61 -14 -73 -58 -59 -44 15 -66
44 -66 89 0 35 -3 39 -25 39 l-25 0 0 -144 c0 -146 6 -170 35 -146 10 8 15 31
15 66 0 29 4 55 8 58 14 8 81 -16 98 -36 9 -10 17 -35 18 -55 1 -34 4 -38 26
-38 l25 0 3 139 c2 93 -1 143 -9 152 -14 17 -25 18 -36 2z"/>
<path d="M2734 1805 c-9 -23 5 -35 40 -35 51 0 56 -12 56 -138 0 -112 0 -113
23 -110 21 3 22 8 25 112 1 61 8 116 14 123 6 7 28 13 49 13 35 0 39 3 39 25
l0 25 -120 0 c-96 0 -122 -3 -126 -15z"/>
<path d="M551 1664 c-13 -17 -21 -41 -21 -65 0 -43 -9 -48 -33 -21 -23 25 -21
35 5 27 17 -6 20 -4 15 10 -4 9 -7 23 -7 30 0 30 -36 36 -83 15 -52 -23 -60
-39 -47 -95 5 -22 8 -41 6 -42 -2 -2 -16 1 -31 7 -34 13 -65 4 -65 -18 0 -9
11 -41 25 -70 14 -30 32 -81 41 -115 8 -33 27 -83 41 -111 21 -41 24 -58 19
-100 -4 -28 -29 -217 -57 -420 -27 -203 -49 -379 -47 -390 5 -37 21 -23 38 34
17 56 46 120 56 120 3 0 18 -30 35 -67 27 -61 31 -65 43 -47 14 19 15 18 38
-3 32 -30 35 -29 43 10 4 17 13 47 21 65 12 29 16 32 34 22 16 -9 20 -8 20 6
0 14 3 14 15 4 9 -7 18 -11 20 -8 17 17 15 210 -4 388 -11 107 -24 239 -27
292 l-7 97 37 22 c21 12 43 36 51 55 8 19 20 34 28 34 8 0 24 8 35 18 17 15
19 26 13 106 l-6 90 -37 -36 c-30 -28 -38 -43 -38 -72 0 -33 -2 -36 -30 -36
-36 0 -51 21 -79 114 -25 81 -27 103 -8 87 18 -14 27 -4 27 29 0 27 -26 60
-48 60 -6 0 -20 -12 -31 -26z m-161 -169 c0 -8 -4 -15 -10 -15 -5 0 -7 7 -4
15 4 8 8 15 10 15 2 0 4 -7 4 -15z"/>
<path d="M5242 1400 c-35 -21 -62 -72 -62 -115 0 -46 28 -82 129 -170 116
-100 131 -120 131 -177 0 -58 -18 -88 -65 -115 -117 -66 -267 28 -235 148 8
28 19 43 43 55 68 35 84 66 49 97 -27 24 -62 21 -111 -10 -87 -56 -121 -197
-67 -281 59 -93 151 -138 267 -130 197 14 299 214 188 367 -15 22 -63 66 -106
99 -97 74 -115 94 -111 124 2 18 9 23 33 23 27 0 30 -4 33 -35 4 -43 18 -60
48 -60 82 0 85 136 4 184 -40 23 -127 21 -168 -4z"/>
<path d="M4573 1388 c-30 -34 -64 -126 -194 -535 -25 -77 -16 -103 35 -103 41
0 48 9 71 85 32 104 53 115 163 85 42 -12 82 -26 90 -32 7 -6 36 -59 65 -116
35 -72 70 -125 109 -167 177 -191 443 -192 563 -2 21 33 10 71 -24 82 -27 8
-45 -2 -73 -44 -70 -104 -245 -103 -364 2 -56 49 -115 164 -164 322 -47 150
-116 324 -153 386 -28 47 -36 54 -67 57 -27 2 -41 -3 -57 -20z m81 -200 c27
-44 60 -158 48 -170 -16 -16 -81 0 -109 28 -27 27 -26 50 4 127 17 42 36 47
57 15z"/>
<path d="M4616 1181 c-3 -5 -7 -21 -8 -35 -1 -14 -6 -26 -10 -26 -4 0 -8 -13
-8 -30 0 -30 20 -47 78 -64 29 -10 29 9 -1 93 -23 63 -39 82 -51 62z"/>
<path d="M5312 1283 c4 -39 29 -43 26 -4 -1 18 -8 31 -16 31 -9 0 -12 -9 -10
-27z"/>
<path d="M5250 1132 c6 -13 14 -21 18 -18 3 4 -2 14 -12 24 -18 16 -18 16 -6
-6z"/>
<path d="M5271 1107 c-6 -8 -11 -19 -10 -23 5 -22 -17 -46 -56 -64 -47 -21
-55 -34 -55 -86 0 -45 49 -98 106 -113 36 -9 48 -8 93 11 41 16 55 29 67 56 7
19 14 43 14 54 0 19 -31 71 -55 93 -6 6 -29 27 -52 48 -34 32 -42 36 -52 24z"/>
<path d="M1080 1402 c-111 -8 -110 -5 -109 -357 1 -266 2 -286 19 -295 51 -28
90 0 90 65 0 58 28 85 164 160 145 79 176 124 176 254 0 123 -56 166 -225 173
-44 2 -96 2 -115 0z m185 -106 c44 -19 57 -45 49 -97 -12 -74 -92 -139 -172
-139 -55 0 -62 12 -62 105 0 73 2 84 24 104 40 38 108 49 161 27z"/>
<path d="M1132 1274 c-12 -8 -22 -22 -22 -30 0 -8 -4 -12 -10 -9 -14 9 -13
-108 2 -140 20 -43 95 -26 165 39 36 34 44 105 14 135 -26 26 -114 29 -149 5z
m18 -180 c0 -8 -19 -13 -24 -6 -3 5 1 9 9 9 8 0 15 -2 15 -3z"/>
<path d="M2283 1396 c-17 -8 -36 -23 -42 -34 -6 -11 -11 -135 -13 -306 l-3
-288 23 -18 c42 -35 82 -1 82 68 0 37 6 50 34 78 40 40 80 44 120 13 29 -23
135 -224 114 -216 -7 2 -41 -11 -75 -30 -47 -26 -78 -35 -130 -40 -89 -7 -153
17 -282 105 -108 74 -216 120 -309 132 -82 11 -112 30 -112 74 0 46 24 62 98
69 70 6 92 18 92 52 0 47 -9 55 -65 55 -57 0 -105 14 -117 33 -13 20 -9 82 6
103 13 17 31 20 171 24 124 4 158 8 165 20 14 22 12 35 -9 61 -19 23 -25 24
-191 28 -271 5 -262 16 -258 -335 l3 -246 28 -24 c25 -21 38 -24 112 -24 150
0 226 -25 348 -116 112 -84 167 -107 268 -112 60 -3 102 0 141 12 60 17 139
66 148 91 4 12 14 5 40 -31 102 -138 300 -208 439 -155 90 34 161 106 161 164
0 25 -23 47 -49 47 -5 0 -34 -24 -63 -54 -82 -83 -167 -96 -282 -42 -92 43
-146 111 -225 283 -57 125 -60 152 -27 212 34 64 46 132 35 200 -10 64 -42
104 -106 133 -58 26 -225 35 -270 14z m238 -127 c23 -25 29 -40 29 -78 0 -93
-68 -153 -148 -132 -53 15 -66 38 -66 127 -1 96 14 114 97 114 53 0 62 -3 88
-31z"/>
<path d="M2373 1270 c-3 -11 -9 -20 -14 -20 -5 0 -9 -29 -9 -64 0 -83 23 -116
80 -116 74 0 128 94 95 164 -19 39 -51 56 -106 56 -32 0 -42 -4 -46 -20z"/>
<path d="M2839 1371 c-24 -19 -24 -22 -33 -306 -11 -352 -25 -323 154 -327
121 -3 127 -2 180 26 123 63 160 130 160 286 0 81 -2 90 -36 146 -19 32 -45
70 -57 82 -80 86 -306 143 -368 93z m229 -120 c77 -40 115 -117 115 -236 0
-90 -17 -123 -81 -158 -64 -35 -120 -36 -159 -3 l-28 24 3 153 c4 162 11 193
54 223 29 21 51 20 96 -3z"/>
<path d="M2966 1225 c-31 -33 -36 -63 -36 -211 0 -150 7 -164 83 -164 68 0
113 27 146 89 31 57 -5 230 -56 272 -58 46 -103 51 -137 14z"/>
<path d="M3494 1390 c-29 -11 -34 -72 -34 -375 0 -182 3 -245 13 -253 26 -21
54 -23 75 -5 21 17 22 29 27 308 6 307 5 316 -40 328 -11 3 -29 2 -41 -3z"/>
<path d="M3785 1365 c-24 -23 -25 -31 -25 -137 0 -62 -5 -178 -10 -258 -10
-155 -3 -215 28 -224 9 -3 69 -7 132 -8 106 -3 119 -1 170 23 120 56 154 110
165 257 7 90 7 94 -25 158 -33 67 -93 134 -144 161 -50 26 -158 53 -214 53
-43 0 -58 -5 -77 -25z m257 -130 c60 -40 83 -98 83 -212 0 -107 -13 -134 -85
-170 -64 -33 -114 -30 -152 8 l-31 31 6 148 c6 154 17 197 54 220 26 15 80 5
125 -25z"/>
<path d="M3905 1227 c-17 -26 -40 -272 -30 -318 9 -39 34 -55 86 -58 52 -3
101 20 132 61 27 37 26 175 -2 239 -38 85 -150 131 -186 76z"/>
<path d="M2692 213 c-2 -63 -2 -63 26 -62 22 1 23 2 5 6 -19 4 -23 12 -26 61
l-3 57 -2 -62z"/>
<path d="M2012 258 c-28 -28 -5 -108 32 -108 14 0 36 20 36 34 0 5 -6 1 -14
-10 -22 -28 -50 -7 -54 40 -4 42 18 57 50 37 16 -10 19 -10 16 1 -6 17 -50 22
-66 6z"/>
<path d="M2197 263 c-12 -11 -8 -88 5 -101 40 -40 87 28 62 92 -6 16 -54 22
-67 9z m61 -44 c3 -39 -17 -65 -43 -55 -10 3 -15 19 -15 44 0 45 6 54 35 50
15 -2 21 -12 23 -39z"/>
<path d="M2216 243 c-10 -10 -7 -53 4 -53 6 0 10 3 11 8 0 4 2 15 4 24 3 19
-8 32 -19 21z"/>
<path d="M3037 264 c-4 -4 -7 -29 -7 -55 0 -39 4 -49 20 -54 34 -11 51 12 48
64 -3 41 -6 46 -28 49 -14 2 -29 0 -33 -4z m51 -51 c-3 -40 -6 -48 -23 -48
-17 0 -20 8 -23 48 -3 45 -2 47 23 47 25 0 26 -2 23 -47z"/>
<path d="M3050 215 c0 -19 5 -35 10 -35 6 0 10 16 10 35 0 19 -4 35 -10 35 -5
0 -10 -16 -10 -35z"/>
<path d="M3562 250 c-7 -11 -19 -20 -27 -20 -10 0 -15 -11 -15 -35 0 -19 5
-35 11 -35 6 0 9 6 6 14 -3 8 0 22 7 32 12 15 14 14 24 -14 6 -18 13 -32 16
-32 3 0 -1 17 -9 39 -12 34 -11 40 3 55 9 9 12 16 7 16 -6 0 -16 -9 -23 -20z"/>
<path d="M3525 250 c3 -5 8 -10 11 -10 2 0 4 5 4 10 0 6 -5 10 -11 10 -5 0 -7
-4 -4 -10z"/>
<path d="M3717 263 c-4 -3 -7 -29 -7 -57 0 -46 1 -48 14 -30 15 19 15 19 30
-1 12 -15 14 -16 10 -3 -3 9 0 26 6 38 16 29 4 60 -24 60 -12 0 -26 -3 -29 -7z
m50 -23 c4 -23 -13 -44 -31 -37 -9 4 -16 18 -16 32 0 22 4 26 22 23 13 -2 24
-10 25 -18z"/>
<path d="M4094 221 c1 -40 6 -57 19 -65 31 -20 52 4 53 60 l1 49 -4 -47 c-7
-81 -59 -74 -66 10 -4 44 -4 43 -3 -7z"/>
<path d="M4308 263 c27 -5 27 -9 -3 -58 -32 -52 -31 -55 8 -54 23 1 26 3 10 6
-29 6 -29 14 2 63 14 22 25 42 25 45 0 3 -15 4 -32 4 -24 -1 -27 -3 -10 -6z"/>
<path d="M3222 215 c1 -53 2 -55 7 -20 l6 40 14 -33 c22 -52 31 -47 29 15 -1
54 -2 55 -6 13 l-4 -45 -23 45 -24 45 1 -60z"/>
</g>
</svg>
