<svg xmlns="http://www.w3.org/2000/svg" viewBox="0 0 512 512" style="enable-background:new 0 0 512 512" xml:space="preserve"><circle style="fill:#ebf4f6" cx="158.856" cy="167.333" r="112.785"/><path style="fill:#bcdfec" d="M271.65 167.332c0-62.292-50.498-112.79-112.79-112.79S46.07 105.04 46.07 167.332s50.498 112.79 112.79 112.79 112.79-50.497 112.79-112.79zm-112.79 90.877c-50.109 0-90.877-40.767-90.877-90.877 0-24.274 9.453-47.095 26.617-64.259s39.985-26.617 64.259-26.617 47.095 9.452 64.259 26.617c17.164 17.164 26.617 39.985 26.617 64.259.001 50.11-40.766 90.877-90.875 90.877z"/><path style="fill:#f7b081" d="M504.503 301.964h-26.152l-11.431-12.377c-11.92-12.908-28.833-20.311-46.404-20.311H317.74a7.24 7.24 0 0 0-.466.001 7.485 7.485 0 0 0-4.929 1.923l-5.318 3.544a7.512 7.512 0 0 0-1.145.938l-39.55 39.55-1.876-1.876a7.498 7.498 0 0 0-5.302-2.196h-93.532c-16.361 0-29.672 13.311-29.672 29.672-.001 7.926 3.086 15.378 8.691 20.982 5.604 5.604 13.056 8.691 20.982 8.691h120.031c8.094 0 14.679 6.584 14.679 14.678s-6.585 14.678-14.679 14.678a7.498 7.498 0 0 0 0 14.994c8.094 0 14.679 6.584 14.679 14.679a14.62 14.62 0 0 1-14.119 14.662 7.497 7.497 0 0 0 .218 14.989c8.026.066 14.556 6.648 14.556 14.674 0 7.61-5.703 13.889-13.266 14.608a7.496 7.496 0 0 0-6.779 7.818 7.496 7.496 0 0 0 7.488 7.142h44.71c.266 0 .53-.015.793-.043h72.088c19.35 0 38.291-6.705 53.332-18.881l18.371-14.872h26.779a7.497 7.497 0 0 0 7.497-7.497V309.461a7.498 7.498 0 0 0-7.498-7.497z"/><path style="fill:#e29e79" d="M321.673 451.407c5.926-5.429 9.649-13.225 9.649-21.875 0-8.812-3.866-16.736-9.986-22.176 6.121-5.44 9.986-13.363 9.986-22.175 0-10.594-5.585-19.903-13.96-25.154V343.19H136.055c.55 7.036 3.547 13.579 8.591 18.623 5.604 5.604 13.056 8.691 20.982 8.691h120.031c8.094 0 14.679 6.584 14.679 14.678 0 8.094-6.585 14.678-14.679 14.678a7.498 7.498 0 0 0 0 14.994c8.094 0 14.679 6.584 14.679 14.679a14.62 14.62 0 0 1-14.119 14.662 7.497 7.497 0 0 0 .218 14.989c8.026.066 14.556 6.648 14.556 14.674 0 7.61-5.703 13.889-13.266 14.608a7.496 7.496 0 0 0-6.779 7.818 7.496 7.496 0 0 0 7.488 7.142h28l5.678-7.497c6.052-5.436 9.867-13.316 9.867-22.072-.006-8.964-4.005-17.005-10.308-22.45z"/><path style="fill:#594333" d="M243.917 82.279a112.808 112.808 0 0 0-2.015-1.964 7.498 7.498 0 0 0-10.448.091c-8.2 8.106-14.142 14.729-16.654 17.598l-35.343 12.993a7.475 7.475 0 0 0-1.569.798l-40.943 27.275-40.923 21.636a7.496 7.496 0 0 0-3.5 9.301l15.835 41.488a7.5 7.5 0 0 0 5.866 4.737l76.678 11.781a7.493 7.493 0 0 0 2.195.012l71.048-10.105a7.5 7.5 0 0 0 5.873-4.557c18.661-45.114 8.417-96.568-26.1-131.084z"/><path style="fill:#3f2f25" d="M259.349 218.602c7.864-15.383 12.3-32.808 12.3-51.269 0-34.796-15.761-65.907-40.528-86.596-6.942 6.88-12.23 12.658-15.135 15.924a92.347 92.347 0 0 1 7.131 6.414c17.164 17.164 26.617 39.985 26.617 64.259 0 20.798-7.028 39.982-18.826 55.314l28.441-4.046z"/><path style="fill:#594333" d="m455.028 160.91-48.897-60.252a7.485 7.485 0 0 0-2.116-1.793c-2.9-1.648-71.474-40.318-108.197-38.747-6.694.291-14.059 2.233-21.89 5.774a7.494 7.494 0 0 0-2.758 11.523c27.831 34.67 38.051 81.242 27.337 124.582a7.5 7.5 0 0 0 1.716 6.826 7.505 7.505 0 0 0 6.618 2.395l2.574-.367 34.088 15.324a7.505 7.505 0 0 0 2.945.658c25.483.438 42.995.597 55.075.597 24.688 0 26.686-.666 27.632-.981 3.816-1.271 6.32-3.263 17.309-31.758 5.095-13.21 9.767-26.43 9.813-26.562a7.499 7.499 0 0 0-1.249-7.219z"/><path style="fill:#3f2f25" d="m455.028 160.91-48.897-60.252a7.485 7.485 0 0 0-2.116-1.793c-2.9-1.648-71.474-40.318-108.197-38.747-4.689.204-9.713 1.236-14.99 3.042 36.621 8.95 81.712 34.375 84.052 35.706a7.503 7.503 0 0 1 2.116 1.793l48.897 60.252a7.498 7.498 0 0 1 1.249 7.22c-.047.132-4.719 13.353-9.813 26.562-10.989 28.495-13.493 30.486-17.309 31.758-.675.225-1.892.628-11.508.841 9.297.098 16.863.14 23.011.14 24.688 0 26.686-.666 27.632-.981 3.816-1.271 6.32-3.263 17.309-31.758 5.095-13.21 9.767-26.43 9.813-26.562a7.502 7.502 0 0 0-1.249-7.221z"/><path style="fill:#ffca10" d="M158.86 8.472C71.264 8.472 0 79.737 0 167.332s71.264 158.86 158.86 158.86 158.86-71.264 158.86-158.86S246.456 8.472 158.86 8.472zm0 271.65c-62.292 0-112.79-50.498-112.79-112.79s50.498-112.79 112.79-112.79 112.79 50.498 112.79 112.79-50.498 112.79-112.79 112.79z"/><path style="fill:#e29e79" d="M452.288 409.505c-12.31 0-54.043-1.998-74.237-27.703a7.497 7.497 0 1 1 11.79-9.262c12.741 16.217 41.602 21.972 62.447 21.972a7.498 7.498 0 0 1 0 14.993zM382.117 326.397h-38.311a7.497 7.497 0 1 1 0-14.994h38.311a7.497 7.497 0 1 1 0 14.994z"/><path style="fill:#3e3d42" d="m382.889 347.379-69.05-69.051a7.496 7.496 0 0 0-10.603 0l-33.38 33.379a7.499 7.499 0 0 0 0 10.602l69.051 69.05c5.874 5.874 13.684 9.109 21.99 9.109 8.308 0 16.118-3.235 21.991-9.109 12.126-12.124 12.126-31.853.001-43.98z"/><path style="fill:#ffa304" d="m322.662 269.505-24.993-24.993c12.764-22.865 20.052-49.184 20.052-77.178 0-87.596-71.264-158.86-158.86-158.86-6.24 0-12.393.374-18.447 1.078 78.936 9.17 140.414 76.426 140.414 157.783S219.35 315.946 140.414 325.116a159.616 159.616 0 0 0 18.447 1.077c27.994 0 54.314-7.288 77.179-20.052l24.993 24.993c1.464 1.463 3.384 2.196 5.302 2.196s3.837-.732 5.302-2.196l51.027-51.027a7.498 7.498 0 0 0-.002-10.602z"/><path style="fill:#ffc89f" d="M285.655 355.508h-44.276c-16.361 0-29.672 13.311-29.672 29.672s13.311 29.672 29.672 29.672h44.276c16.361 0 29.673-13.311 29.673-29.672 0-16.36-13.311-29.672-29.673-29.672z"/><path style="fill:#f7b081" d="M315.328 385.18H211.706c0 16.36 13.312 29.672 29.672 29.672h44.276c16.363 0 29.674-13.31 29.674-29.672z"/><path style="fill:#ffc89f" d="M285.655 399.858h-31.39c-16.361 0-29.673 13.311-29.673 29.673 0 16.361 13.311 29.672 29.673 29.672h31.39c16.361 0 29.673-13.311 29.673-29.672s-13.311-29.673-29.673-29.673z"/><path style="fill:#f7b081" d="M224.592 429.531c0 16.361 13.311 29.672 29.673 29.672h31.39c16.361 0 29.673-13.311 29.673-29.672h-90.736z"/><path style="fill:#ffc89f" d="M286.309 444.184h-18.502c-16.361 0-29.672 13.311-29.672 29.672 0 7.926 3.087 15.377 8.691 20.982 5.605 5.605 13.056 8.691 20.982 8.691h18.502c16.361 0 29.673-13.311 29.673-29.673-.002-16.362-13.312-29.672-29.674-29.672z"/><path style="fill:#f7b081" d="M315.981 473.856h-77.846c0 7.926 3.087 15.377 8.691 20.982 5.605 5.605 13.056 8.691 20.982 8.691h18.502c16.361 0 29.671-13.312 29.671-29.673z"/></svg>