<svg xmlns="http://www.w3.org/2000/svg" viewBox="0 0 512.001 512.001" style="enable-background:new 0 0 512.001 512.001" xml:space="preserve"><path style="fill:#ffeb99" d="m506.849 129.946-85.976-37.794a7.496 7.496 0 0 0-10.42 8.048c3.807 23.8-.939 48.178-13.362 68.646a7.5 7.5 0 0 0 1.106 9.191l15.576 15.576-1.046 1.046a7.495 7.495 0 0 0 0 10.601l49.665 49.665a9.416 9.416 0 0 1 2.776 6.703 9.419 9.419 0 0 1-2.777 6.704c-1.79 1.791-4.171 2.777-6.703 2.777s-4.913-.986-6.703-2.777l-49.664-49.665a7.496 7.496 0 0 0-10.601-.001l-1.047 1.046-2.457-2.458a7.493 7.493 0 0 0-5.069-2.184v243.254l120.665 53.042a7.5 7.5 0 0 0 7.115-.585 7.496 7.496 0 0 0 3.398-6.277V136.809a7.488 7.488 0 0 0-4.476-6.863z"/><path style="fill:#fff5cf" d="m380.149 212.184-8.049-8.049a7.494 7.494 0 0 0-9.191-1.107c-31.601 19.181-71.132 19.614-103.16 1.128a7.468 7.468 0 0 0-3.393-.982v308.807a7.476 7.476 0 0 0 2.663-.616l121.131-53.247V212.184z"/><path style="fill:#ffeb99" d="M256.356 202.098a101.793 101.793 0 0 1-17.662-14.106c-19.996-19.996-30.52-46.588-29.635-74.877a7.498 7.498 0 0 0-4.476-7.098l-69.479-30.543a7.474 7.474 0 0 0-2.657-.622V458.38l120.538 52.986a7.485 7.485 0 0 0 3.017.634c.119 0 .237-.02.355-.025l-.001-309.877z"/><path style="fill:#fff5cf" d="M132.447 74.861a7.478 7.478 0 0 0-3.378.614L5.154 129.946a7.496 7.496 0 0 0-4.48 6.863v367.696a7.496 7.496 0 0 0 10.514 6.862l121.258-53.303V74.861z"/><path style="fill:#3e3d42" d="M70.129 383.625a7.495 7.495 0 0 1-7.496-7.496v-34.922c0-4.14 3.355-7.496 7.496-7.496s7.496 3.356 7.496 7.496v34.922a7.496 7.496 0 0 1-7.496 7.496z"/><path style="fill:#f83c2b" d="M70.129 288.923c-16.481 0-29.89 13.409-29.89 29.89 0 16.482 13.409 29.891 29.89 29.891 16.482 0 29.891-13.409 29.891-29.891 0-16.481-13.409-29.89-29.891-29.89zM425.465 385.07h-4.722a7.495 7.495 0 0 1-7.496-7.496 7.495 7.495 0 0 1 7.496-7.496h4.722c1.42 0 2.848-.097 4.243-.287a7.497 7.497 0 1 1 2.024 14.855 46.452 46.452 0 0 1-6.267.424zm-34.708 0h-9.995a7.495 7.495 0 0 1-7.496-7.496 7.495 7.495 0 0 1 7.496-7.496h9.995a7.495 7.495 0 0 1 7.496 7.496 7.495 7.495 0 0 1-7.496 7.496zm-39.98 0h-9.995a7.495 7.495 0 0 1-7.496-7.496 7.495 7.495 0 0 1 7.496-7.496h9.995a7.495 7.495 0 0 1 7.496 7.496 7.495 7.495 0 0 1-7.496 7.496zm-39.981 0h-9.995a7.495 7.495 0 0 1-7.496-7.496 7.495 7.495 0 0 1 7.496-7.496h9.995a7.495 7.495 0 0 1 7.496 7.496 7.495 7.495 0 0 1-7.496 7.496zm-39.981 0h-9.995a7.495 7.495 0 0 1-7.496-7.496 7.495 7.495 0 0 1 7.496-7.496h9.995a7.495 7.495 0 0 1 7.496 7.496 7.495 7.495 0 0 1-7.496 7.496zm-39.981 0h-9.995a7.495 7.495 0 0 1-7.496-7.496 7.495 7.495 0 0 1 7.496-7.496h9.995a7.495 7.495 0 0 1 7.496 7.496 7.495 7.495 0 0 1-7.496 7.496zm-39.98 0h-9.995a7.495 7.495 0 0 1-7.496-7.496 7.495 7.495 0 0 1 7.496-7.496h9.995a7.495 7.495 0 0 1 7.496 7.496 7.495 7.495 0 0 1-7.496 7.496zm-39.981 0h-9.995a7.495 7.495 0 0 1-7.496-7.496 7.495 7.495 0 0 1 7.496-7.496h9.995a7.495 7.495 0 0 1 7.496 7.496 7.495 7.495 0 0 1-7.496 7.496zm-39.981 0h-9.995a7.495 7.495 0 0 1-7.496-7.496 7.495 7.495 0 0 1 7.496-7.496h9.995a7.495 7.495 0 0 1 7.496 7.496 7.495 7.495 0 0 1-7.496 7.496zm345.099-15.029a7.495 7.495 0 0 1-5.932-12.071 31.023 31.023 0 0 0 4.036-6.937 7.497 7.497 0 0 1 13.827 5.794 46.002 46.002 0 0 1-5.986 10.292 7.486 7.486 0 0 1-5.945 2.922zm5.233-37.841a7.5 7.5 0 0 1-6.959-4.705 30.921 30.921 0 0 0-3.929-6.99 7.496 7.496 0 0 1 1.518-10.492 7.496 7.496 0 0 1 10.492 1.517 45.876 45.876 0 0 1 5.832 10.378 7.496 7.496 0 0 1-4.163 9.749c-.915.37-1.86.543-2.791.543zm-29.926-23.734a7.64 7.64 0 0 1-1.133-.085 31.445 31.445 0 0 0-4.7-.353h-4.148a7.495 7.495 0 0 1-7.496-7.496 7.495 7.495 0 0 1 7.496-7.496h4.148c2.325 0 4.662.176 6.947.522a7.496 7.496 0 0 1-1.114 14.908zm-39.967-.438h-9.995a7.495 7.495 0 0 1-7.496-7.496 7.495 7.495 0 0 1 7.496-7.496h9.995a7.495 7.495 0 0 1 7.496 7.496 7.495 7.495 0 0 1-7.496 7.496zm-39.981 0h-9.995a7.495 7.495 0 0 1-7.496-7.496 7.495 7.495 0 0 1 7.496-7.496h9.995a7.495 7.495 0 0 1 7.496 7.496 7.495 7.495 0 0 1-7.496 7.496zm-39.98 0h-9.995a7.495 7.495 0 0 1-7.496-7.496 7.495 7.495 0 0 1 7.496-7.496h9.995a7.495 7.495 0 0 1 7.496 7.496 7.495 7.495 0 0 1-7.496 7.496zm-39.981 0h-9.995a7.495 7.495 0 0 1-7.496-7.496 7.495 7.495 0 0 1 7.496-7.496h9.995a7.495 7.495 0 0 1 7.496 7.496 7.495 7.495 0 0 1-7.496 7.496zm-39.981 0h-9.995a7.496 7.496 0 1 1 0-14.992h9.995a7.495 7.495 0 0 1 7.496 7.496 7.495 7.495 0 0 1-7.496 7.496zm-38.364-7.967a7.464 7.464 0 0 1-4.231-1.313 53.528 53.528 0 0 1-8.8-7.562 7.496 7.496 0 0 1 .355-10.596 7.496 7.496 0 0 1 10.596.354 38.38 38.38 0 0 0 6.326 5.436 7.497 7.497 0 0 1-4.246 13.681zm-19.662-33.337a7.497 7.497 0 0 1-7.454-6.791 53.61 53.61 0 0 1 .166-11.597 7.496 7.496 0 1 1 14.879 1.838 38.832 38.832 0 0 0-.119 8.347 7.497 7.497 0 0 1-7.472 8.203zm13.024-36.447a7.496 7.496 0 0 1-5.324-12.774 53.447 53.447 0 0 1 9.017-7.305 7.497 7.497 0 0 1 8.115 12.607 38.372 38.372 0 0 0-6.482 5.252 7.48 7.48 0 0 1-5.326 2.22zm46.33-13.514h-9.995c-4.141 0-7.496-3.356-7.496-7.496s3.355-7.496 7.496-7.496h9.995a7.496 7.496 0 1 1 0 14.992z"/><circle style="fill:#ebf4f6" cx="310.372" cy="116.315" r="81.121"/><path style="fill:#ffca10" d="M392.657 34.028c-45.371-45.371-119.194-45.371-164.566 0-45.37 45.37-45.37 119.194 0 164.565 21.978 21.978 51.201 34.083 82.282 34.083 31.082 0 60.304-12.104 82.281-34.083 21.979-21.978 34.084-51.2 34.084-82.282.001-31.082-12.102-60.304-34.081-82.283zm-82.282 163.408c-44.803 0-81.124-36.32-81.124-81.124s36.32-81.124 81.124-81.124 81.124 36.32 81.124 81.124-36.321 81.124-81.124 81.124z"/><path style="fill:#bcdfec" d="M310.375 35.187c-44.803 0-81.124 36.32-81.124 81.124s36.32 81.124 81.124 81.124 81.124-36.32 81.124-81.124-36.321-81.124-81.124-81.124zm-.001 139.691c-32.293 0-58.567-26.273-58.567-58.568s26.272-58.567 58.567-58.567 58.568 26.273 58.568 58.567c0 32.295-26.273 58.568-58.568 58.568z"/><path d="M455.691 286.088c-6.268 0-12.534-2.386-17.306-7.157l-49.665-49.665a7.496 7.496 0 0 1 0-10.6l24.008-24.007a7.496 7.496 0 0 1 10.602 0l49.665 49.665c9.541 9.541 9.541 25.067 0 34.609-4.771 4.769-11.037 7.155-17.304 7.155zm-51.068-62.122 44.366 44.365c3.695 3.695 9.709 3.696 13.405 0 3.696-3.696 3.696-9.71 0-13.407l-44.364-44.365-13.407 13.407z"/><path style="fill:#3e3d42" d="m472.996 244.322-49.665-49.665a7.496 7.496 0 0 0-10.602 0l-24.008 24.007a7.496 7.496 0 0 0 0 10.6l49.665 49.665c4.771 4.771 11.038 7.157 17.306 7.157 6.267 0 12.533-2.386 17.305-7.157 9.539-9.539 9.539-25.065-.001-34.607z"/><path style="fill:#ffa304" d="m429.678 188.311-16.804-16.805c9.056-16.762 13.866-35.608 13.866-55.195 0-31.082-12.103-60.304-34.083-82.282C365.303 6.675 327.607-4.18 292.038 1.45c23.426 3.708 45.93 14.562 63.946 32.578 21.978 21.978 34.083 51.2 34.083 82.282s-12.103 60.304-34.084 82.282c-17.593 17.594-39.83 28.852-63.945 32.647 6.01.946 12.135 1.435 18.336 1.435 19.587 0 38.433-4.811 55.195-13.866l16.805 16.804a7.478 7.478 0 0 0 5.301 2.196 7.474 7.474 0 0 0 5.301-2.196l36.701-36.701a7.496 7.496 0 0 0 .001-10.6z"/><path style="fill:#ffcd00" d="M358.245 98.166a7.494 7.494 0 0 0-6.117-5.022l-24.34-3.211-11.154-21.871c-1.296-2.542-3.962-4.119-6.777-4.09a7.498 7.498 0 0 0-6.667 4.267l-10.576 22.156-24.247 3.848a7.495 7.495 0 0 0-3.986 12.84l17.804 16.905-3.833 24.25a7.497 7.497 0 0 0 10.979 7.758l21.58-11.708 21.877 11.139a7.497 7.497 0 0 0 10.774-8.044l-4.468-24.14 17.355-17.366a7.496 7.496 0 0 0 1.796-7.711z"/></svg>